<?xml version="1.0" standalone="no"?>
<!DOCTYPE svg PUBLIC "-//W3C//DTD SVG 20010904//EN"
 "http://www.w3.org/TR/2001/REC-SVG-20010904/DTD/svg10.dtd">
<svg version="1.0" xmlns="http://www.w3.org/2000/svg"
 width="1496.000000pt" height="1496.000000pt" viewBox="0 0 1496.000000 1496.000000"
 preserveAspectRatio="xMidYMid meet">
<metadata>
Created by potrace 1.11, written by Peter Selinger 2001-2013
</metadata>
<g transform="translate(0.000000,1496.000000) scale(0.100000,-0.100000)"
fill="#000000" stroke="none">
<path d="M4412 10440 c-82 -20 -184 -97 -220 -165 -35 -69 -47 -209 -29 -345
3 -19 8 -57 12 -85 4 -27 11 -70 17 -95 5 -25 13 -67 16 -95 9 -68 8 -399 -2
-565 -4 -74 -9 -425 -11 -780 -3 -355 -7 -1012 -9 -1460 -8 -1240 -16 -1437
-60 -1584 -8 -27 -13 -53 -10 -57 2 -4 1 -10 -4 -13 -10 -6 -5 -125 7 -140 4
-6 11 -23 15 -38 9 -37 112 -142 162 -163 83 -37 168 -48 234 -31 8 2 29 7 46
11 44 10 127 86 162 148 31 54 55 123 68 192 8 46 8 40 18 130 5 39 10 84 12
100 4 31 11 124 19 255 9 144 17 427 19 681 l3 255 42 80 c24 43 61 109 82
146 22 36 39 71 39 77 0 6 4 11 8 11 5 0 14 12 21 28 7 15 23 43 35 62 13 19
51 80 85 134 112 178 244 335 348 413 21 15 44 34 51 40 58 55 280 155 377
169 172 26 239 23 305 -11 39 -20 96 -78 117 -119 21 -40 53 -134 59 -175 3
-18 8 -43 10 -55 18 -81 21 -275 10 -536 -8 -191 -8 -429 -1 -535 10 -150 23
-294 30 -355 3 -19 7 -66 10 -105 4 -38 8 -77 10 -85 2 -8 7 -37 10 -65 6 -48
9 -75 20 -150 8 -56 14 -98 19 -125 12 -72 29 -177 31 -190 0 -9 4 -21 9 -28
4 -6 5 -12 2 -12 -2 0 2 -27 10 -60 7 -32 16 -72 19 -87 17 -97 86 -273 105
-273 5 0 12 -9 15 -20 3 -11 12 -20 19 -20 7 0 21 -8 30 -19 25 -28 122 -55
190 -53 105 3 203 48 271 123 27 30 53 75 52 89 0 3 5 15 12 27 12 23 16 119
7 163 -3 14 -8 36 -11 50 -4 14 -8 36 -11 50 -2 14 -9 46 -15 72 -6 25 -12 57
-14 70 -2 12 -6 41 -10 63 -3 22 -13 83 -21 135 -8 52 -17 106 -19 120 -2 14
-7 48 -10 75 -2 28 -7 61 -9 75 -3 14 -7 57 -10 95 -4 39 -8 81 -10 95 -3 14
-7 61 -11 105 -3 44 -8 95 -10 113 -2 18 -7 65 -10 105 -3 40 -7 83 -9 97 -9
52 -16 182 -31 550 -16 381 -17 406 -29 540 -4 36 -9 83 -11 105 -5 37 -7 50
-20 115 -2 14 -7 41 -10 60 -11 64 -55 203 -84 267 -112 238 -312 375 -616
422 -88 14 -341 11 -426 -6 -41 -7 -84 -15 -96 -18 -75 -13 -282 -97 -358
-145 -16 -11 -44 -26 -62 -35 -18 -9 -37 -23 -44 -31 -6 -8 -17 -14 -24 -14
-8 0 -15 -3 -17 -7 -1 -5 -37 -35 -78 -68 -92 -73 -232 -214 -325 -328 -38
-47 -71 -84 -73 -83 -4 4 -2 721 3 831 3 92 11 247 22 440 3 61 6 256 6 435 1
289 -3 392 -18 495 -3 17 -7 51 -10 77 -2 26 -7 61 -10 78 -3 16 -7 45 -11 63
-27 162 -99 254 -229 295 -38 11 -150 13 -193 2z"/>
<path d="M332 10184 c-78 -27 -126 -64 -173 -134 -58 -85 -60 -108 -65 -552
-2 -222 -6 -511 -10 -643 -3 -132 -5 -249 -4 -260 1 -11 1 -24 1 -30 -1 -15
-9 -283 -16 -540 -9 -347 -14 -511 -20 -720 -3 -104 -8 -260 -10 -345 -2 -85
-6 -263 -10 -395 -12 -448 -14 -539 -20 -1095 -5 -520 -4 -559 13 -615 41
-134 97 -216 190 -283 66 -47 141 -65 235 -58 96 7 160 36 204 95 68 88 65 42
69 1121 1 536 3 978 3 981 1 4 187 -180 414 -408 679 -683 737 -739 919 -895
40 -34 78 -67 84 -73 6 -5 26 -21 44 -35 18 -14 42 -33 54 -43 32 -28 63 -52
146 -112 41 -30 80 -58 85 -62 18 -15 119 -80 190 -123 60 -37 251 -135 273
-141 15 -4 38 -11 57 -19 97 -39 289 -59 363 -37 51 14 110 62 149 121 56 83
77 160 70 251 -13 160 -94 252 -282 320 -81 29 -186 74 -195 85 -3 3 -17 10
-31 17 -46 20 -138 83 -222 151 -114 93 -125 102 -171 145 -23 20 -44 37 -48
37 -3 0 -14 7 -23 16 -9 9 -35 32 -58 51 -23 20 -98 88 -167 153 -69 64 -152
142 -185 173 -33 30 -78 73 -101 94 -280 264 -387 367 -616 595 l-268 266 247
249 c332 334 566 577 798 828 21 22 67 72 104 111 36 39 98 106 136 149 39 43
81 90 95 105 14 14 50 55 80 91 30 35 60 69 65 75 6 6 28 32 50 58 22 27 49
58 60 70 18 21 43 50 115 138 14 17 37 45 51 62 50 61 177 232 226 306 152
227 175 318 114 455 -35 79 -161 186 -237 200 -10 2 -19 4 -19 5 0 1 -16 3
-35 4 -80 6 -186 -30 -243 -83 -23 -21 -190 -210 -282 -319 -11 -13 -33 -39
-50 -57 -16 -19 -39 -44 -50 -58 -27 -32 -118 -137 -130 -151 -6 -6 -53 -60
-105 -121 -51 -60 -99 -115 -104 -121 -6 -7 -29 -33 -51 -59 -22 -27 -51 -60
-64 -74 -13 -14 -37 -43 -55 -65 -17 -21 -38 -46 -46 -55 -9 -9 -43 -47 -75
-86 -33 -38 -69 -79 -80 -91 -11 -12 -49 -54 -85 -94 -36 -41 -75 -85 -87 -98
-13 -14 -58 -63 -100 -110 -43 -47 -102 -110 -130 -140 -29 -30 -53 -55 -53
-57 0 -6 -278 -290 -434 -444 l-116 -114 -1 79 c-1 182 7 442 25 774 10 181
17 301 22 375 3 44 7 116 9 160 2 44 7 148 10 230 4 83 8 245 9 360 l1 210
-29 63 c-46 99 -148 183 -241 197 -80 13 -123 10 -183 -11z"/>
<path d="M13527 8514 c-1 -1 -49 -4 -107 -8 -104 -6 -148 -12 -183 -22 -10 -3
-35 -8 -55 -10 -20 -3 -55 -10 -77 -16 -22 -6 -42 -12 -45 -13 -122 -34 -353
-128 -380 -155 -3 -3 -18 -12 -34 -20 -42 -22 -186 -119 -236 -160 -148 -122
-234 -209 -389 -396 -44 -53 -138 -210 -198 -329 -36 -71 -65 -132 -64 -135 1
-3 -12 -41 -28 -85 -27 -77 -64 -219 -77 -299 -3 -21 -7 -48 -9 -59 -26 -133
-26 -562 0 -752 3 -22 8 -56 10 -75 2 -19 6 -45 8 -56 3 -12 8 -39 11 -60 4
-22 8 -46 11 -54 2 -8 6 -26 9 -40 24 -131 113 -359 181 -466 19 -30 35 -58
35 -63 0 -5 3 -11 8 -13 4 -1 23 -23 42 -48 70 -92 220 -230 249 -230 6 0 11
-4 11 -8 0 -13 184 -106 267 -136 82 -29 215 -62 288 -72 28 -3 59 -8 70 -10
39 -9 172 -17 270 -18 92 0 140 4 220 19 32 6 160 42 185 52 8 3 20 7 25 8 20
5 194 74 249 99 31 14 57 26 59 25 1 0 72 36 159 80 l156 80 18 -27 c26 -39
30 -44 130 -146 160 -162 286 -244 354 -231 14 3 41 8 60 12 38 7 119 60 156
102 40 44 67 111 70 170 1 31 -1 60 -5 66 -4 5 -24 51 -45 100 -20 50 -41 99
-46 110 -5 11 -25 61 -44 110 -19 50 -40 104 -47 120 -7 17 -13 33 -14 38 -2
4 -4 9 -5 12 -1 3 -3 8 -5 13 -1 4 -4 14 -8 22 -44 113 -99 294 -111 365 -36
213 -40 285 -40 655 1 312 8 612 19 750 12 158 22 251 31 300 3 14 8 41 11 60
3 19 21 62 41 94 33 54 37 65 36 130 -1 93 -36 167 -115 245 -78 76 -125 109
-244 169 -80 41 -288 122 -314 122 -11 0 -22 4 -25 8 -3 5 -29 14 -58 20 -29
7 -64 15 -78 18 -74 17 -171 32 -215 33 -27 1 -72 3 -98 5 -26 1 -49 1 -50 0z
m258 -652 c44 -16 107 -42 140 -58 49 -24 60 -34 61 -54 0 -14 -2 -29 -5 -35
-3 -5 -6 -16 -7 -25 -1 -20 -13 -100 -18 -125 -2 -11 -7 -42 -10 -70 -4 -27
-9 -63 -12 -80 -21 -141 -21 -583 0 -815 3 -30 8 -86 11 -125 4 -38 8 -90 11
-115 2 -25 7 -73 9 -108 3 -35 7 -75 9 -90 3 -15 8 -61 11 -102 3 -41 9 -88
11 -105 3 -16 7 -46 9 -65 10 -100 17 -157 21 -171 4 -15 -42 -63 -120 -124
-21 -16 -44 -35 -50 -40 -25 -23 -145 -105 -154 -105 -5 0 -15 -7 -22 -15 -6
-8 -15 -14 -18 -13 -4 1 -16 -3 -27 -9 -28 -15 -165 -63 -165 -58 0 2 -12 0
-26 -5 -15 -6 -41 -12 -58 -15 -17 -2 -49 -7 -71 -11 -54 -10 -297 -10 -365 0
-157 23 -310 111 -420 241 -29 35 -100 152 -100 166 0 5 -9 26 -19 47 -10 20
-19 39 -18 42 0 3 -7 28 -16 55 -9 28 -18 61 -21 75 -2 14 -9 48 -15 75 -32
155 -44 418 -27 585 10 102 35 232 48 248 6 6 8 12 4 12 -17 0 84 234 151 350
70 121 227 305 336 393 22 18 44 37 51 43 28 26 138 93 208 127 124 59 232 92
343 104 28 3 52 7 54 9 2 2 47 2 100 0 75 -3 113 -10 176 -34z"/>
<path d="M9567 8484 c-2 -2 -28 -7 -58 -9 -30 -3 -65 -7 -79 -10 -14 -3 -38
-8 -55 -11 -82 -14 -213 -56 -309 -98 -97 -43 -196 -97 -196 -107 0 -5 -5 -9
-12 -9 -23 0 -165 -115 -258 -209 -131 -132 -267 -319 -346 -475 -14 -28 -29
-58 -34 -66 -25 -44 -65 -145 -104 -263 -95 -285 -133 -591 -112 -917 5 -89
12 -148 31 -275 11 -75 67 -278 90 -330 8 -16 11 -33 9 -37 -3 -4 0 -8 5 -8 6
0 11 -7 11 -15 0 -8 4 -23 9 -33 5 -9 26 -51 47 -92 35 -71 132 -229 157 -255
7 -7 28 -32 47 -56 193 -243 543 -458 800 -494 8 -1 29 -5 45 -8 119 -26 342
-24 500 4 147 25 138 23 150 30 6 4 24 9 40 13 56 14 200 80 280 129 161 99
321 248 430 401 11 16 26 34 33 41 6 8 12 16 12 19 0 2 18 31 39 64 77 115
204 392 226 492 1 3 7 25 14 50 7 25 15 52 16 60 2 8 4 15 5 15 2 0 6 18 15
64 3 19 8 37 10 41 2 3 7 33 10 65 4 33 9 62 10 65 2 3 6 41 10 85 4 44 9 89
11 100 5 24 5 382 0 445 -8 100 -16 187 -21 210 -3 14 -7 39 -10 55 -30 178
-60 288 -122 453 -61 161 -166 351 -251 454 -48 58 -186 190 -227 217 -22 14
-46 31 -53 38 -7 7 -48 29 -90 49 -42 20 -90 42 -106 50 -16 8 -39 14 -51 14
-11 0 -25 4 -30 8 -6 5 -35 14 -65 20 -30 6 -68 14 -85 18 -35 8 -381 15 -388
8z m260 -709 c113 -17 230 -75 307 -150 83 -82 136 -165 189 -295 41 -101 78
-272 95 -440 9 -98 8 -531 -2 -595 -19 -123 -24 -147 -42 -205 -25 -78 -77
-200 -86 -200 -4 0 -8 -7 -8 -15 0 -27 -83 -138 -165 -220 -149 -151 -301
-229 -505 -261 -38 -6 -191 -5 -225 2 -80 15 -122 27 -172 49 -29 14 -56 25
-60 25 -3 0 -28 16 -54 35 -27 19 -51 35 -54 35 -9 0 -138 133 -168 172 -30
40 -120 208 -112 208 3 0 -1 13 -10 29 -17 35 -53 192 -63 276 -15 133 -6 379
19 515 6 36 12 72 14 80 10 73 73 257 124 365 88 184 179 305 318 424 49 43
190 117 258 137 123 36 286 48 402 29z"/>
</g>
</svg>
